<svg width="100" height="100" viewBox="0 0 100 100" fill="none" xmlns="http://www.w3.org/2000/svg">
<path fill-rule="evenodd" clip-rule="evenodd" d="M25 0C18.3696 0 12.0107 2.63392 7.32233 7.32233C2.63392 12.0107 0 18.3696 0 25V75C0 81.6304 2.63392 87.9893 7.32233 92.6777C12.0107 97.3661 18.3696 100 25 100H75C81.6304 100 87.9893 97.3661 92.6777 92.6777C97.3661 87.9893 100 81.6304 100 75V25C100 18.3696 97.3661 12.0107 92.6777 7.32233C87.9893 2.63392 81.6304 0 75 0H25ZM68.65 43.42C69.0991 42.9407 69.4494 42.3776 69.6809 41.7629C69.9124 41.1482 70.0206 40.4939 69.9992 39.8374C69.9779 39.1809 69.8274 38.535 69.5565 37.9366C69.2855 37.3383 68.8993 36.7991 68.42 36.35C67.9407 35.9009 67.3776 35.5506 66.7629 35.3191C66.1482 35.0876 65.4939 34.9794 64.8374 35.0008C64.1809 35.0221 63.535 35.1726 62.9366 35.4435C62.3383 35.7145 61.7991 36.1007 61.35 36.58L45.935 53.03L38.32 46.265C37.3223 45.4356 36.0413 45.0265 34.7475 45.1241C33.4537 45.2217 32.2486 45.8184 31.3866 46.7881C30.5246 47.7578 30.0734 49.0246 30.1281 50.3209C30.1829 51.6172 30.7393 52.8414 31.68 53.735L42.93 63.735C43.9034 64.5997 45.1758 65.0506 46.4765 64.9917C47.7772 64.9329 49.0036 64.369 49.895 63.42L68.65 43.42Z" fill="#5A8B29"/>
</svg>
